<?xml version="1.0" encoding="UTF-8"?>
<svg id="Capa_2" data-name="Capa 2" xmlns="http://www.w3.org/2000/svg" viewBox="0 0 204.48 134.14">
  <defs>
    <style>
      .cls-1 {
        fill: #fab410;
      }

      .cls-2 {
        fill: #f49812;
      }
    </style>
  </defs>
  <g id="Capa_1-2" data-name="Capa 1">
    <path class="cls-2" d="m179.87,88.05c3.25,0,6.51-.13,9.69.82,2.41.72,3.46,2.2,3.57,3.56.12,1.55-1.71,3.75-3.51,4.38-4.57,1.59-9.26,1.62-14.02,1.16-1.97-.19-3.95-.37-5.92-.56-3.67-.34-7.28-1.02-10.88-1.71-6.39-1.24-12.7-2.83-18.96-4.62-5.85-1.68-11.43-4.03-16.93-6.59-5.36-2.49-10.66-5.09-15.51-8.5-1.65-1.16-3.42-2.27-4.16-4.29-.52-1.43-.62-2.94.42-4.22,1.2-1.48,2.91-1.58,4.6-1.28,3.17.56,5.94,2.1,8.74,3.62,4.08,2.21,8.2,4.51,12.92,5.02,3.55.38,6.41-1.16,8.42-4.12,3.28-4.84,5.48-10.26,8.15-15.42,3.06-5.92,5.98-11.91,8.59-18.04,3.12-7.34,6.17-14.72,9.42-22,1.78-3.99,3.36-8.09,5.84-11.75,1.18-1.75,2.82-2.77,4.71-3.37,2.09-.67,4.35,1.15,4.41,3.37.1,3.46-1.32,6.55-2.48,9.67-2.49,6.68-5.1,13.3-7.67,19.95-.91,2.36-1.93,4.69-2.55,7.16-.49,1.91-.3,3.79.4,5.6.49,1.25,2.05,1.66,3.46,1.1,1.87-.74,3.03-2.26,4.15-3.77,6.12-8.32,12.15-16.71,18.31-25,1.33-1.79,2.69-3.71,4.88-4.61,3.09-1.26,6.25.2,6.53,3.97.21,2.94-1.31,5.21-2.58,7.51-1.9,3.43-4.06,6.73-6.24,10-4.5,6.73-9.46,13.13-14.23,19.67-5.26,7.22-10.62,14.39-14.4,22.57-.79,1.7-1.57,3.41-1.55,5.36.02,2.26.94,3.52,3.14,4.28,2.23.77,4.57.87,6.88,1.07,1.45.12,2.92.02,4.39.03Z"/>
    <path class="cls-1" d="m29.32,46.39c-3.57.22-7.12-.18-10.68-.32-1.97-.08-4.01-.33-5.74-1.59-1.53-1.12-1.8-3.55-.56-5.01,1.56-1.83,3.66-2.51,5.9-2.93,3.94-.73,7.93-.58,11.86-.22,6.2.56,12.34,1.57,18.44,2.89,7.34,1.59,14.6,3.42,21.72,5.79,3.23,1.08,6.31,2.5,9.4,3.9,4.86,2.19,9.7,4.46,14.24,7.27,2.55,1.57,5.24,3.01,6.99,5.59.93,1.37.98,2.92.36,4.37-.65,1.52-2.04,1.94-3.65,1.94-3.57,0-6.58-1.63-9.55-3.27-3.88-2.15-7.79-4.17-12.15-5.18-3.99-.93-8.38,1.17-10.42,4.87-3.85,6.99-7.43,14.13-10.88,21.32-3.61,7.53-6.94,15.19-10.17,22.9-2.6,6.22-5.16,12.47-8.16,18.51-1.12,2.25-2.33,4.47-4.58,5.89-1.78,1.12-3.92,1.39-5.06.54-1.47-1.11-2.08-3.16-1.47-5.29,1.55-5.41,3.59-10.64,5.6-15.89,2.33-6.08,5.04-12.02,6.93-18.26.45-1.47.44-3.01.09-4.43-.87-3.55-3.15-3.4-5.45-1.44-2.25,1.92-3.87,4.4-5.6,6.76-4.69,6.38-9.2,12.9-13.95,19.24-1.49,1.99-2.8,4.21-4.98,5.64-2.24,1.47-4.35,1.67-5.87.5-1.76-1.34-2.35-3.79-1.63-6.26.89-3.06,2.69-5.64,4.31-8.31,6.16-10.16,13.52-19.48,20.51-29.07,4.45-6.11,8.84-12.29,12.09-19.16.89-1.89,1.84-3.79,1.82-5.98-.02-2.42-1.01-3.79-3.3-4.43-.77-.22-1.56-.5-2.35-.53-1.36-.07-2.68-.55-4.06-.32Z"/>
    <path class="cls-2" d="m147.36,106.6c.2,5.72-4.71,10.44-10.37,10.49-5.7.05-11-5.15-10.79-10.96.22-5.87,4.69-10.28,10.41-10.34,5.81-.07,11,4.95,10.75,10.81Z"/>
    <path class="cls-1" d="m67.61,17.35c5.69-.33,10.79,5.15,10.67,10.95-.1,5.17-4.94,10.32-10.75,10.21-5.04-.1-10.81-5.21-10.47-11.35.27-4.84,4.86-10.23,10.55-9.81Z"/>
  </g>
</svg>