<?xml version="1.0" encoding="utf-8"?>
<!-- Generator: Adobe Illustrator 27.4.1, SVG Export Plug-In . SVG Version: 6.00 Build 0)  -->
<svg version="1.1" id="Capa_1" xmlns="http://www.w3.org/2000/svg" xmlns:xlink="http://www.w3.org/1999/xlink" x="0px" y="0px"
	 viewBox="0 0 595.28 841.89" style="enable-background:new 0 0 595.28 841.89;" xml:space="preserve">
<style type="text/css">
	.st0{fill:#F49812;}
	.st1{fill:#FAB410;}
</style>
<path class="st0" d="M375.16,442.24c3.25-0.01,6.51-0.13,9.69,0.82c2.41,0.72,3.46,2.2,3.57,3.56c0.12,1.55-1.71,3.75-3.51,4.38
	c-4.57,1.59-9.26,1.62-14.02,1.16c-1.97-0.19-3.95-0.37-5.92-0.56c-3.67-0.34-7.28-1.02-10.88-1.71c-6.39-1.24-12.7-2.83-18.96-4.62
	c-5.85-1.68-11.43-4.03-16.93-6.59c-5.36-2.49-10.66-5.09-15.51-8.5c-1.65-1.16-3.42-2.27-4.16-4.29c-0.52-1.43-0.62-2.94,0.42-4.22
	c1.2-1.48,2.92-1.58,4.6-1.28c3.17,0.56,5.94,2.1,8.74,3.62c4.08,2.21,8.2,4.51,12.92,5.02c3.55,0.38,6.41-1.16,8.42-4.12
	c3.28-4.84,5.48-10.26,8.15-15.42c3.06-5.92,5.98-11.91,8.59-18.04c3.12-7.34,6.17-14.72,9.42-22c1.78-3.99,3.36-8.09,5.84-11.75
	c1.18-1.75,2.82-2.77,4.71-3.37c2.09-0.67,4.35,1.15,4.41,3.37c0.1,3.46-1.32,6.55-2.48,9.67c-2.49,6.68-5.1,13.3-7.67,19.95
	c-0.91,2.36-1.93,4.69-2.55,7.16c-0.49,1.91-0.3,3.79,0.4,5.6c0.49,1.25,2.05,1.66,3.46,1.1c1.87-0.74,3.03-2.26,4.15-3.77
	c6.12-8.32,12.15-16.71,18.31-25c1.33-1.79,2.69-3.71,4.88-4.61c3.09-1.26,6.25,0.2,6.53,3.97c0.21,2.94-1.31,5.21-2.58,7.51
	c-1.9,3.43-4.06,6.73-6.24,10c-4.5,6.73-9.46,13.13-14.23,19.67c-5.26,7.22-10.62,14.39-14.4,22.57c-0.79,1.7-1.57,3.41-1.55,5.36
	c0.02,2.26,0.94,3.52,3.14,4.28c2.23,0.77,4.57,0.87,6.88,1.07C372.23,442.34,373.7,442.24,375.16,442.24z"/>
<path class="st1" d="M224.61,400.57c-3.57,0.22-7.12-0.18-10.68-0.32c-1.97-0.08-4.01-0.33-5.74-1.59c-1.53-1.12-1.8-3.55-0.56-5.01
	c1.56-1.83,3.66-2.51,5.9-2.93c3.94-0.73,7.93-0.58,11.86-0.22c6.2,0.56,12.34,1.57,18.44,2.89c7.34,1.59,14.6,3.42,21.72,5.79
	c3.23,1.08,6.31,2.5,9.4,3.9c4.86,2.19,9.7,4.46,14.24,7.27c2.55,1.57,5.24,3.01,6.99,5.59c0.93,1.37,0.98,2.92,0.36,4.37
	c-0.65,1.52-2.04,1.94-3.65,1.94c-3.57,0-6.58-1.63-9.55-3.27c-3.88-2.15-7.79-4.17-12.15-5.18c-3.99-0.93-8.38,1.17-10.42,4.87
	c-3.85,6.99-7.43,14.13-10.88,21.32c-3.61,7.53-6.94,15.19-10.17,22.9c-2.6,6.22-5.16,12.47-8.16,18.51
	c-1.12,2.25-2.33,4.47-4.58,5.89c-1.78,1.12-3.92,1.39-5.06,0.54c-1.47-1.11-2.08-3.16-1.47-5.29c1.55-5.41,3.59-10.64,5.6-15.89
	c2.33-6.08,5.04-12.02,6.93-18.26c0.45-1.47,0.44-3.01,0.09-4.43c-0.87-3.55-3.15-3.4-5.45-1.44c-2.25,1.92-3.87,4.4-5.6,6.76
	c-4.69,6.38-9.2,12.9-13.95,19.24c-1.49,1.99-2.8,4.21-4.98,5.64c-2.24,1.47-4.35,1.67-5.87,0.5c-1.76-1.34-2.35-3.79-1.63-6.26
	c0.89-3.06,2.69-5.64,4.31-8.31c6.16-10.16,13.52-19.48,20.51-29.07c4.45-6.11,8.84-12.29,12.09-19.16
	c0.89-1.89,1.84-3.79,1.82-5.98c-0.02-2.42-1.01-3.79-3.3-4.43c-0.77-0.22-1.56-0.5-2.35-0.53
	C227.31,400.82,225.99,400.34,224.61,400.57z"/>
<path class="st0" d="M342.65,460.79c0.2,5.72-4.71,10.44-10.37,10.49c-5.7,0.05-11-5.15-10.79-10.96
	c0.22-5.87,4.69-10.28,10.41-10.34C337.72,449.91,342.91,454.92,342.65,460.79z"/>
<path class="st1" d="M262.9,371.54c5.69-0.33,10.79,5.15,10.67,10.95c-0.1,5.17-4.94,10.32-10.75,10.21
	c-5.04-0.1-10.81-5.21-10.47-11.35C252.62,376.51,257.22,371.11,262.9,371.54z"/>
</svg>
